<svg viewBox="235 90 210 210" xmlns="http://www.w3.org/2000/svg">
  <g transform="translate(340, 195)">
    <circle cx="0" cy="0" r="105" fill="#F28C00" opacity="0.08"/>
    <circle cx="0" cy="0" r="90" fill="#F28C00" opacity="0.13"/>
    <circle cx="0" cy="0" r="78" fill="#F28C00"/>
    <path d="M-28 26 L-28 -5 Q-28 -33 0 -33 Q28 -33 28 -5 L28 26 Z" fill="white" opacity="0.95"/>
    <path d="M-17 26 L-17 -2 Q-17 -20 0 -20 Q17 -20 17 -2 L17 26 Z" fill="#F28C00"/>
    <path d="M0 -43 C0 -43 -6 -52 -13 -48 C-19 -44 -19 -35 0 -28 C19 -35 19 -44 13 -48 C6 -52 0 -43 0 -43 Z" fill="white" opacity="0.92"/>
    <rect x="-34" y="24" width="68" height="4" rx="2" fill="white" opacity="0.45"/>
  </g>
</svg>
